<svg xmlns="http://www.w3.org/2000/svg" viewBox="0 0 430 148" width="430" height="148">
  <defs>
    <linearGradient id="bg" x1="0" y1="0" x2="1" y2="1">
      <stop offset="0%" stop-color="#060D1F"/>
      <stop offset="100%" stop-color="#080F22"/>
    </linearGradient>
    <linearGradient id="bar" x1="0" y1="0" x2="1" y2="0">
      <stop offset="0%" stop-color="#0057FF"/>
      <stop offset="100%" stop-color="#00CCFF"/>
    </linearGradient>
    <filter id="g">
      <feGaussianBlur in="SourceGraphic" stdDeviation="3" result="b"/>
      <feMerge><feMergeNode in="b"/><feMergeNode in="SourceGraphic"/></feMerge>
    </filter>
  </defs>

  <rect width="430" height="148" rx="6" fill="url(#bg)"/>
  <rect width="430" height="2" rx="1" fill="url(#bar)"/>

  <g stroke="#1E3A6E" stroke-width="1.5" fill="none">
    <path d="M 14 12 L 14 24 M 14 12 L 26 12"/>
    <path d="M 416 12 L 416 24 M 416 12 L 404 12"/>
  </g>

  <text x="20" y="40" font-family="'Courier New',Courier,monospace" font-size="13" font-weight="bold" fill="#00CCFF" filter="url(#g)">📷  camera_auto_sync</text>
  <text x="415" y="40" font-family="'Courier New',Courier,monospace" font-size="12" fill="#0057FF" text-anchor="end">↗</text>

  <line x1="20" y1="50" x2="410" y2="50" stroke="#0D2045" stroke-width="1"/>

  <text x="20" y="68" font-family="'Courier New',Courier,monospace" font-size="11" fill="#58A6FF">Plug in your Sony ZV-E10. Walk away.</text>
  <text x="20" y="84" font-family="'Courier New',Courier,monospace" font-size="11" fill="#58A6FF">Windows service syncs everything to Google Drive</text>
  <text x="20" y="100" font-family="'Courier New',Courier,monospace" font-size="11" fill="#3A6BC4">the moment the camera mounts.</text>

  <rect x="20" y="118" width="56" height="18" rx="9" fill="#0A1628" stroke="#0057FF" stroke-width="1"/>
  <text x="48" y="131" font-family="'Courier New',Courier,monospace" font-size="9" fill="#00CCFF" text-anchor="middle">Python</text>

  <rect x="82" y="118" width="64" height="18" rx="9" fill="#0A1628" stroke="#0057FF" stroke-width="1"/>
  <text x="114" y="131" font-family="'Courier New',Courier,monospace" font-size="9" fill="#00CCFF" text-anchor="middle">Windows</text>

  <rect x="152" y="118" width="52" height="18" rx="9" fill="#0A1628" stroke="#0057FF" stroke-width="1"/>
  <text x="178" y="131" font-family="'Courier New',Courier,monospace" font-size="9" fill="#00CCFF" text-anchor="middle">rclone</text>

  <rect x="210" y="118" width="80" height="18" rx="9" fill="#0A1628" stroke="#0057FF" stroke-width="1"/>
  <text x="250" y="131" font-family="'Courier New',Courier,monospace" font-size="9" fill="#00CCFF" text-anchor="middle">Google Drive</text>
</svg>
